<svg xmlns="http://www.w3.org/2000/svg" viewBox="0 0 180 180"><rect width="180" height="180" rx="32" fill="#eee5dd"/><g transform="translate(35 25) scale(1.1)" fill="#0c3c2f"><path d="M531.774 284.506c18.688-1.668 37.905 11.068 42.225 29.61.665 2.854.887 6.665 1.181 9.629l-4.183.04c.089-19.147-13.365-32.733-32.014-35.106-15.356-2.152-32.23 8.001-37.882 22.28-1.704 4.303-2.115 8.021-2.444 12.573l-4.021-.094c1.47-21.697 15.337-36.734 37.138-38.932" transform="translate(-485 -275)"/><path d="M531.418 293.548c3.37-.263 6.59-.283 9.928.308a30.19 30.19 0 0 1 19.483 12.715c2.759 4.017 5.8 11.988 4.927 16.772-.696.498-2.702.323-3.772.34-1.686-15.241-7.766-23.094-23.158-26.427-13.96-.69-26.384 5.625-30.345 19.774-.615 2.2-.372 6.755-3.071 6.862-1.166-.589-.988-.281-1.501-1.246-.182-5.137 2.863-12.954 6.062-17.027 5.807-7.393 12.35-10.78 21.447-12.07" transform="translate(-485 -275)"/><path d="M532.049 302.273c9.739-1.6 20.267 4.814 23.114 14.207.75 2.479 1.037 4.706 1.316 7.27-1.076-.034-2.32 0-3.413 0-2.61-9.884-3.958-14.872-15.192-17.48q-.45-.062-.902-.112c-7.516-.817-15.26 3.298-18.498 10.19-1.3 2.77-1.277 5.858-3.268 7.435-1.127.124-.612.233-1.596-.349-1.144-2.573 2.097-10.114 3.761-12.437 3.758-5.245 8.48-7.57 14.678-8.724" transform="translate(-485 -275)"/><path d="M533.463 311.634c5.162-.513 10.106 2.276 12.1 7.17.65 1.592.993 3.372-.047 4.867-1.12.54-.524.416-1.873.225-2.33-1.824-.897-6.304-6.853-8.192l-.366-.112c-10.476-.249-7.838 8.132-11.61 8.507-4.26-2.872 1.08-8.999 3.907-10.76 1.66-1.033 2.887-1.305 4.741-1.705" transform="translate(-485 -275)"/><path d="m519.1 326.408 42.613.063c4.821.008 9.64.038 14.46-.005 1.406-.012 3.469-.223 4.298.996.008 1.156.067 1.142-.501 2.211-1.668 1.166-23.744.502-27.548.503-6.703-.063-60.589.85-62.58-.385-.345-.214-.664-.94-.702-1.357-.08-.877.095-1.096.602-1.735 2.652-.315 7.416-.188 10.301-.193q9.53.03 19.057-.098" transform="translate(-485 -275)"/><path d="M491.08 335.33c16.02-.441 34.28-.048 50.484-.05h22.742c3.712 0 7.433-.022 11.144.021 2.037.024 2.928 2.394 1.116 3.81a3311 3311 0 0 1-53.725.002c-9.92-.011-19.975.03-29.904-.022-1.25-.007-1.499-.042-2.141-.732-.26-1.163.017-1.867.283-3.029" transform="translate(-485 -275)"/><path d="M492.747 343.767q18.028.249 36.055.294c13.89.022 27.779-.01 41.669-.08 2.075-.01 4.28-.485 5.182 1.65-.094 1.155-.214 1.178-.848 2.122-4.307.402-13.42.17-17.966.163l-32.852-.055-21.521-.032c-2.864-.007-6.47.07-9.358-.222-.731-.074-.87-.68-1.12-1.225.072-1.335.136-1.394.76-2.615" transform="translate(-485 -275)"/><path d="M494.228 352.26c3.286-.344 9.341-.216 12.781-.223q11.993-.027 23.984.084c13.081.091 26.15-.042 39.228-.017 1.67.003 2.71.252 3.298 1.892-.183 1.085-.153 1.013-.78 1.917-6.178.59-77.006.31-78.717-.323-.471-.174-.46-.466-.651-.892.093-1.232.257-1.391.857-2.437" transform="translate(-485 -275)"/><path d="M498.22 360.446c15.64.441 31.677-.006 47.315.19 3.948.05 23.115-.491 25.534.407.662.908.584 2 .16 2.993-1.192.72-1.308.47-2.924.53l-43.905-.128c-3.623-.002-27.422.43-28.903-.658-.39-1.11-.22-1.647-.075-2.81.802-.677 1.538-.47 2.741-.524" transform="translate(-485 -275)"/></g></svg>
