<svg xmlns="http://www.w3.org/2000/svg" width="640" height="640" viewBox="0 0 640 640"><path fill="#efdfc1" d="M158.116 265.695c4.102-.61 6.626 1.119 8.938 4.44 5.968 8.578 4.677 18.206 4.275 28.022-.168 4.53-.145 9.065.07 13.594.784 14.308 4.445 27.537 8.39 41.199 1.58 5.478 2.933 10.728 1.894 16.428-6.254 7.435-15.848 11.456-21.166.19-2.153-4.562-3.453-8.971-2.053-14.084 2.564-9.365.424-18.987-.493-28.43-.442-3.829.95-14.466-3.423-16.41-5.77-2.565-9.637 13.284-10.546 16.222-1.239 4.009-2.45 7.047-3.727 10.54-2.73 7.472-5.592 23.49-17.022 17.438-3.043-1.61-3.187-4.047-4.633-6.772-1.598-2.54-2.812-4.86-4.067-7.566-3.042-6.565-2.467-13.615-6.097-19.875-1.59-2.74-1.921-8.326-7.012-6.793-2.547.768-3.682 3.265-4.755 5.353-1.117 2.95-3.388 5.503-3.948 8.703-1.61 9.194.567 18.578 1.322 27.747.382 4.64.454 8.046-1.587 12.328-5.71 11.978-19.123 13.315-24.078-.031-.766-2.066.224-6.204.713-8.335a105 105 0 0 1 6.004-18.34c2.032-4.65 4.84-10.088 6.263-14.866 1.024-3.44 1.516-8.538 2.144-12.247.707-4.166 1.554-8.47 2.218-12.605 1.4-8.72-3.467-17.136 1.826-25.528 1.958-3.104 5.24-6.97 8.955-7.83 4.578-1.059 9.085 2.878 11.075 6.788 1.686 3.825 2.44 8.219 3.594 12.245 1.55 5.66 3.643 9.961 6.103 15.367 1.826 4.011 5.458 11.882 11.165 10.754 2.051-.407 3.064-3.988 4.194-5.624 1.752-2.54 4.162-5.035 5.554-7.838 3.68-8.006 6.169-16.83 9.628-24.915 2.051-4.793 5.462-7.546 10.282-9.269"/><path fill="#efdfc1" d="M527.3 324.994c10.04-.457 23.516-2.247 32.922-5.81 3.762-1.428 7.806-4.306 11.928-6.056.284 1.403.678 3.081.875 4.475-1.8 2.544-2.1 3.269-4.816 4.825-.634 4.706-1.65 11.828-3.415 16.125a430 430 0 0 0-5.716 14.572c-3.712 10.019-11.847 18.244-21.6 22.6-7.122-3.028-8.537.081-15.303.131-5.525.044-10.46-1.715-16.362-1.322-10.11-9.206-17.713-21.38-21.144-34.79-.763-2.975-1.535-5.366-2.925-8.082-1.025-3.228-5.794-9.153-3.775-12.328 4.878-3.39 30.034 5.475 36.781 5.972 4.494.332 7.94.435 12.55-.312m-7.972 20.572c2.128-.903 3.8-1.763 5.853-2.838 1.263-.694 2.485-1.319 3.663-2.144-6.094-1.65-10.997-3.29-17.353-3.34l-.382.44c.638 1.341 6.954 7.035 8.22 7.882m9.71 2.897 3.63.568c2.738.028 4.363-.162 6.791-1.594 1.72-1.015 6.016-3.425 6.188-5.493-.828-.538-.75-.34-1.938-.3-7.428 1.162-8.737 2.365-14.671 6.818m3.856-12.482c2.915.594 5.443-.69 7.756-2.431 2.247-1.69 7.24-3.962 9.053-5.475l.025-.384-.747-.075c-3.618 1.284-16.19 4.925-18.228 6.44.075 1.3 1.038 1.485 2.14 1.925m25.834 2.175c-1.462 1.078-9.64 8.003-9.956 9.172l.356.363c3.972-1.182 9.7-4.688 9.763-9.291zm-44.231 18.072c3.325.51 9.597-.044 11.55-3.103l-.169-.294-.584.019c-1.397.387-12.26 2.434-12.113 2.334.516.685.547.632 1.316 1.044m-1.197 7.088.306-.5c-1.028-.507-6.162-1.544-9.04-2.738.603 1.753.859 2.438 1.737 4.125 2.775.078 4.263.006 6.997-.887m-14.406-11.66c2.462.244 4.022.49 6.453.975l3.294-1.303.496-.747c-1.14-1.328-8.6-1.622-11.843-3.193.406 1.812.787 2.63 1.6 4.268m33.51 14.019c-1.423.538-4.77 1.544-5.385 2.819.684.415.737.312 1.568.231 1.322-.503 4.691-1.712 5.404-2.875l-.27-.275zm16.734-29.234c3.49.287 3.568-.21 6.456-2.472 1.443-1.132 7.012-6.578 7.403-8.01l-.284-.365c-2.666 1.862-13.213 8.262-13.954 10.515zm-25.144-5.22.043-.7c-1.356-1.124-7.115-1.23-8.962-1.08q-.441.037-.881.093c1.156 1.91 7.334 2.082 9.431 1.744zm-6.335 37.145c1.4-.566 4.67-1.7 5.238-3.125-.703-.485-1.344-.35-2.29-.22-1.629.52-3.844 1.07-5.182 2.017l-.028.496c.915.66 1.172.638 2.262.832m32.866-10.532c1.044-1.793 3.222-5.153 3.212-7.175-2.534 1.447-10.559 6.047-12.006 8.072l-.025.625c3.972.088 4.969-.306 8.819-1.522m-11.853-3.747c-1.94.347-10.944 3.785-12.047 4.935.597.612.256.353 1.172.597 2.887-.281 10.475-2.225 12.425-4.332l.11-.55-.523-.603zM489.15 328.41c1.247 4.235 12.028 4.794 15.337 3.494l-.146-.531c-4.744-2.388-10.194-2.422-15.191-2.963m4.513 8.51c.043 1.372-.216 2.194.862 3.153 2.166 1.925 9.528 3.916 12.1 3.737-3.956-4.875-7.369-4.846-12.962-6.89"/><path fill="#b3a38d" fill-opacity=".051" d="m548.981 327.616.747.075-.025.384c-1.812 1.513-6.806 3.784-9.053 5.475-2.312 1.74-4.84 3.025-7.756 2.431-1.103-.44-2.066-.625-2.14-1.925 2.037-1.515 14.609-5.156 18.227-6.44"/><path fill="#edd9bd" fill-opacity=".11" d="m562.713 325.594.284.365c-.39 1.432-5.96 6.878-7.403 8.01-2.888 2.262-2.966 2.76-6.457 2.472l-.378-.332c.741-2.253 11.288-8.653 13.953-10.515"/><path fill="#edd9bd" fill-opacity=".012" d="M493.663 336.919c5.593 2.044 9.006 2.015 12.962 6.89-2.572.178-9.934-1.812-12.1-3.737-1.078-.96-.819-1.781-.862-3.153"/><path fill="#edd9bd" fill-opacity=".008" d="M489.15 328.41c4.997.54 10.447.574 15.19 2.962l.147.531c-3.309 1.3-14.09.74-15.337-3.494"/><path fill="#edd9bd" fill-opacity=".012" d="M497.294 347.388c3.244 1.571 10.703 1.865 11.844 3.193l-.497.747-3.294 1.303c-2.431-.484-3.99-.731-6.453-.975-.813-1.637-1.194-2.456-1.6-4.268"/><path fill="#e9d9cb" fill-opacity=".031" d="m538.672 354.088 1.137.046.522.603-.11.55c-1.95 2.107-9.537 4.05-12.424 4.332-.916-.244-.575.015-1.172-.597 1.103-1.15 10.106-4.588 12.047-4.935"/><path fill="#edd9bd" fill-opacity=".027" d="m558.728 338.156.163.244c-.063 4.603-5.791 8.11-9.763 9.29l-.356-.362c.315-1.169 8.494-8.094 9.956-9.172"/><path fill="#e9d9cb" fill-opacity=".031" d="m525.294 352.85.584-.019.169.294c-1.953 3.06-8.225 3.612-11.55 3.103-.769-.412-.8-.36-1.316-1.044-.147.1 10.716-1.947 12.113-2.334"/><path fill="#edd9bd" fill-opacity=".024" d="M504.566 360.078c2.878 1.194 8.012 2.231 9.04 2.738l-.306.5c-2.734.893-4.222.965-6.997.887-.878-1.687-1.134-2.372-1.737-4.125"/><path fill="#e9d9cb" fill-opacity=".11" d="M514.194 329.534q.44-.055.881-.093c1.847-.15 7.606-.044 8.962 1.08l-.043.7-.369.057c-2.097.338-8.275.166-9.431-1.744"/><path fill="#e9d9cb" fill-opacity=".031" d="M520.606 365.022c.947-.131 1.588-.266 2.29.219-.568 1.425-3.837 2.559-5.237 3.125-1.09-.194-1.346-.172-2.262-.832l.028-.496c1.338-.947 3.553-1.497 5.181-2.016"/><path fill="#e9d9cb" fill-opacity=".122" d="m532.403 365.675 1.319-.1.269.275c-.713 1.163-4.082 2.372-5.404 2.875-.83.081-.884.184-1.568-.231.615-1.275 3.962-2.281 5.384-2.819"/><path fill="#efdfc1" d="M389.556 294.786c2.028-.537 6.647 1.634 8.588 2.435 16.703 6.915 20.687 26.188 20.49 42.46-.065 5.247-1.412 10.963-.89 16.107.453 4.443 7.231 7.596 6.15 12.5-.622 2.803-3.222 4.856-5.394 6.528-6.228 4.403-9.731-1.632-15.122-3.291-2.21-.628-4.01 1.781-5.69 2.75-4.338 2.5-12.413 3.538-17.304 2.406-7.484-1.734-7.656-3.975-10.947-9.037-4.484-4.203-3.993-9.588-3.625-15.325a29.9 29.9 0 0 1 2.747-10.478c6.925-15.116 22.913-9.353 30.178-15.875l.266-.244c2.584-6.419-.244-11.856-4.894-16.024-5.737-5.141-11.865 4.777-14.278 8.68-3.747 6.072-11.687 5.353-12.76-1.89-.602-4.083 2.654-9.682 5.041-12.95 4.135-5.531 10.785-8.013 17.444-8.752m.21 67.07 3.925.06c1.38-1.157 3.609-3.716 4.83-4.535 6.638-4.453 2.857-17.581-5.487-16.668-4.828 1.262-9.059 1.6-11.815 6.084a10.4 10.4 0 0 0-1.235 7.887c1.2 5.057 4.888 7.12 9.782 7.172"/><path fill="#efdfc1" d="M219.144 290.71q.33-.038.662-.065c12.116-.946 24.391 9.141 25.081 21.582a22.13 22.13 0 0 1-5.747 16.004c-7.76 8.672-14.717 6.79-25.04 7.14-4.545.154-5.62 1.557-8.33 4.679 1.359 6.919 3.716 14.194 10.687 17.36 8.577 4.037 12.267-6.822 18.697-9.298 4.548-1.746 8.54 5.21 9.53 8.67.011.334.047 1.13-.21 1.45-3.212 3.974-7.339 10.124-10.668 13.665-2.268 1.634-5.82 2.578-8.267 3.328-10.589 3.128-16.15-1.85-22.734-8.56-18.202-18.55-17.08-41.35-4.188-62.698 4.847-8.027 11.462-11.113 20.527-13.257m-2.775 32.118c4.574-.278 8.48-.169 11.883-3.894 5.98-6.548-.35-15.524-8.361-14.536-4.054 2.164-17.272 7.564-13.627 14.018 1.841 3.259 6.627 4.278 10.105 4.412"/><path fill="#efdfc1" d="M447.578 262.94c2.025-.056 4.266.717 5.503 2.42 4.069 5.597 1.944 11.972 1.128 18.257-1.559 12.02 14.194 5.113 18.907 12.675 1.847 2.476 2.59 5.72 2.093 8.833-1.365 7.616-9.365 3.467-13.893 2.778-13.96-2.162-9.463 14.81-8.775 23.578.621 6.597-4.56 24.463 4.765 26.25 1.928.369 7.54-6.703 9.663-8.393 1.628-.057 3.347-.06 4.981-.091 7.113 6.047 5.79 13.956 1.84 21.206-3.268 5-10.724 6.29-16.196 7.366-7.416-3.41-16.275-7.297-18.728-15.747-.716-2.478-3.438-6.406-3.716-9.034-.74-7.054.21-14.826.819-21.916 1.225-5.797 3.531-12.44 2.784-18.41-1.019-8.163-18.456-.308-19.003-11.22-.553-11.011 14.61-7.89 19.61-12.733 2.443-2.368.021-10.306-.322-13.312-.11-6.305 1.643-12.289 8.54-12.507"/><path fill="#efdfc1" d="M340.066 297.854c3.434-.338 5.259 1.629 8.184 2.94 5.569 2.496 6.006 4.008 8.366 9.367-.55 1.195-1.1 2.395-1.697 3.567-6.338 12.44-14.494-1.707-26.122 2.766-4.144 1.593-8.044 8.437-9.497 12.406-2.547 6.956-2.55 14.497.631 21.25 1.422 3.012 3.55 6.556 6.89 7.638 5.623 1.818 9.942-2.579 14.61-4.735 2.275-1.05 4.681-1.334 7.044-.387 2.21.88 4.616 3.128 5.44 5.384.913 2.49-.009 4.869-1.074 7.116-2.732 3.628-7.82 8.675-12.182 10.078-3.209 1.031-16.775.415-19.837-1.272-5.047-2.784-17.245-18.203-18.59-23.584-3.766-15.072-2.572-19.704 5.56-33.15 4.03-6.662 9.652-15.604 17.905-17.125 4.828-.891 9.55-1.067 14.369-2.259"/><path fill="#efdfc1" d="M291.02 289.062a15.3 15.3 0 0 1 4.98.179c4.7.95 7.3 3.874 9.748 7.643-.086 2.56-.176 8.116-1.335 10.006-3.336 5.44-12.238-.73-18.326 2.452-24.459 12.79-.35 40.505-10.11 59.442-3.055 5.928-5.997 7.607-12.047 4.397-6.786-5.334-5.133-13.962-4.266-21.422.548-4.706.804-9.056.936-13.787.087-3.09.964-6.366.873-9.51-.075-2.584-.545-4.984-1.002-7.515-.874-8.153-6.456-18.216-1.976-25.89 1.111-1.902 3.767-3.875 5.84-4.273 3.055-.587 6.074 1.833 8.436 3.458 3.196 2.211 3.455 4.373 3.994 7.947 3.745-4.188 9.36-10.795 14.256-13.127"/><path fill="#edd9bd" fill-opacity=".243" d="m490.384 297.213.513-1.762c.931-3.304 1.66-2.737 2.594-5.102 1.38-3.505 1.996-8.342 4.9-11.116l1.137.063q.166-.417.34-.829c2.4-5.58 7.013-8.72 12.135-11.88.885-.544 2.206.228 3.34-.38 1.916-1.029 3.576-2.053 5.613-2.866 3.513-1.4 8.888-1.643 12.381-.144-8.756-.595-12.312-.976-19.662 5.41-1.931 1.68-3.756 3.398-5.487 5.357l.44-.152c6.697-2.381 12.44-7.45 20.216-8.037 1.947-.147 8.956.396 9.61-.127-.382-.716-.823-.819-.991-1.122.85.045 1.075-.065 1.709.436l-.04.282c-.113.805-.226.805.027 1.488l1.26.548c-1.888-.207-7.631-1.021-9.038-.066l-.144.835-.587-.251c-.028-.63-.019-.564.063-1.183-5.525-2.59-19.735 8.364-22.416 7.723l-.597-.895c-1.234.513-2.022 3.024-3.544 4.14 3.54-7.301 7.694-7.555 10.025-11.556-8.703 5.018-12.331 7.717-15.69 17.888-.232.696-.329 1.271-.091 1.967 1.39-.082 3.313-4.27 4.253-5.613-.516 1.837-2.084 5.379-3.778 6.322-.756-.194-.787-.195-1.469-.56-1.369 3.56-1.103 10.106-2.803 12.521l-.565.028c-.241-.465-.279-.522-.454-1.02-.306 4.182.407 7.332-.246 11.485-.507 3.243-2.61 6.986-1.966 9.896 5.831 2.715 17.062 3.965 23.528 5.84 3.653 1.06 8.272-.297 12.4.213-4.61.747-8.056.643-12.55.312-6.747-.497-31.903-9.362-36.781-5.972-2.019 3.175 2.75 9.1 3.775 12.328-1.882-1.734-3.375-5.69-4.457-8.068-4.28-9.428 9.46-4.003 11.32-5.216-.366-.756-.523-1.06-.629-1.887.74.787.916 1.09 1.94 1.478l.438-.34c.185-1.757-1.206-6.078-1.022-10.136l.02-.365.33-.092c.888-1.368-.45-5.732.938-8.711-.194 3.258-.447 12.534.581 15.366l.306.037.225-.46-.496.257-.094-.4.84-.712.013.13c.21-1.266.453-2.605.597-3.873.831-1.88.21-13.744.119-16.562-.8 2.136-1.394 3.71-1.726 5.973l-.368.059zm4.22.059c.093-.311 3.602-17.037 3.63-16.523l-.262-.247c-2.866 4.882-5.06 11.142-3.369 16.77"/><path fill="#f1e4c8" fill-opacity=".878" d="m497.972 280.503.262.246c-.028-.514-3.537 16.212-3.63 16.523-1.692-5.628.502-11.888 3.368-16.77"/><path fill="#efdfc1" d="M508.188 273.964c1.73-1.959 3.556-3.677 5.487-5.356 7.35-6.387 10.906-6.006 19.663-5.41 1.509.425 2.65.743 4.125 1.328.168.303.609.406.99 1.122-.653.523-7.662-.02-9.61.127-7.774.588-13.518 5.656-20.215 8.037z"/><defs><linearGradient id="a" x1="1738.086" x2="1743.737" y1="878.758" y2="864.711" gradientUnits="userSpaceOnUse"><stop offset="0" stop-color="#efdfc1" stop-opacity=".957"/><stop offset="1" stop-color="#efdfc1"/></linearGradient></defs><path fill="url(#a)" d="m1699.96 857.758.46-2.672c4.5-3.058 22.88-.451 28.92.21 16.99 4.375 28.59 12.688 38.58 26.989 1.83 2.613 5.29 8.379 6.91 10.395-.15 1.916.18 1.119-.79 2.464-8.56-3.921-15.73-11.642-25.24-15.869-9.41-7.344-37.46-17.96-48.84-21.517" transform="scale(.3125)"/><path fill="#e9d9cb" fill-opacity=".184" d="M552.228 282.472c2.435 2.73 5.238 5.286 7.84 7.885-.743-2.26-1.152-3.618-2.684-5.54l.325-.493c2.394 2.8 2.872 3.456 1.866 6.8.625 1.052 1.572 2.453 1.916 3.58-1.95-2.117-4.125-4.945-6.053-6.868 1.05 2.986 5.453 12.146 8.328 13.056.378-.904.128-1.543-.057-2.527.757 1.205.841 1.26.891 2.632-.388.919-1.087 1.997-.625 2.955.894 1.854 2.29 4.058.372 5.893 1.403-3.97-2.906-9.644-5.472-12.463-.247 2.055 4.144 10.654 5.472 12.463l-.59.37c.402 1.57 1.043 3.4.84 4.944l-.363.478c-.334-.003-.568.035-.862-.065 1.947-1.584-1.369-8.476-2.978-9.354-.603 1.48 1.118 5.172 1.681 6.954-2.256-2.399-2.75-5.315-1.838-8.23.5-1.596-1.787-5.299-2.23-7.496.365-.577.262-.498.874-.956-.99-1.823-3.875-5.943-3.562-7.881.5-3.102-2.078-3.442-3.5-5.919z"/><path fill="#f1e4c8" fill-opacity=".937" d="M514.181 266.027c-2.331 4-6.484 4.255-10.025 11.555-.49.849-1.087 1.82-1.503 2.687-.94 1.343-2.862 5.531-4.253 5.613-.238-.696-.14-1.27.09-1.967 3.36-10.17 6.988-12.87 15.691-17.888"/><path fill="#efdfc1" d="M492.713 292.108c.09 2.818.712 14.682-.12 16.562-.387.692-.755 1.61-1.346 1.976-.413-1.038-.169-10.665-.26-12.565.332-2.263.925-3.837 1.726-5.973"/><path fill="#f1e4c8" fill-opacity=".933" d="M555.438 287.836c1.928 1.923 4.103 4.751 6.053 6.868.787 1.241 1.512 2.367 2.218 3.661.185.984.435 1.623.057 2.527-2.875-.91-7.279-10.07-8.328-13.056"/><path fill="#f1e4c8" fill-opacity=".906" d="M548.206 277.31c4.338 2.559 5.932 3.647 9.178 7.507 1.532 1.922 1.941 3.28 2.685 5.54-2.603-2.599-5.406-5.155-7.84-7.885a150 150 0 0 0-4.023-5.162"/><path fill="#f1e4c8" fill-opacity=".941" d="m488 306.192.697-1.23.35.106.306 2.06-.019.365c-.184 4.058 1.207 8.379 1.022 10.135l-.437.34c-1.025-.387-1.2-.69-1.94-1.477-.392-4.009-.198-6.324.021-10.3"/><path fill="#f1e4c8" fill-opacity=".906" d="M564.347 309.845c-1.328-1.809-5.719-10.408-5.472-12.463 2.566 2.819 6.875 8.494 5.472 12.463"/><path fill="#e9d9cb" fill-opacity=".294" d="M546.5 274.773c2.972 1.321 5.212 3.734 7.888 4.96.303-.42.2-.172.246-.77.757.73.557.3.663 1.308l-.356.855a62 62 0 0 0 2.768 3.198l-.325.493c-3.246-3.86-4.84-4.948-9.178-7.507a150 150 0 0 1 4.022 5.162l-.41.218c-1.23-1.405-2.634-3.038-3.612-4.608l.738-.929c-.288-.753-1.203-1.067-2.047-1.954z"/><path fill="#f1e4c8" fill-opacity=".933" d="M562.075 313.172c-.563-1.782-2.284-5.475-1.681-6.954 1.61.878 4.925 7.77 2.978 9.354-.478-.781-.875-1.588-1.297-2.4"/><path fill="#f1e4c8" fill-opacity=".886" d="m490.619 298.14.368-.06c.091 1.9-.153 11.528.26 12.566.59-.367.96-1.284 1.347-1.976-.144 1.268-.388 2.607-.597 3.874l-.013-.131-.84.712.094.4.496-.256-.225.46-.306-.038c-1.028-2.832-.775-12.108-.581-15.366z"/><path fill="#e9d9cb" fill-opacity=".145" d="M488 306.192c-.216-4.264 1.063-1.622 1.65-4.34.14-.661.353-3.062.631-4.215l.103-.424.235.927.003.185c-1.388 2.98-.05 7.343-.938 8.71l-.33.093-.307-2.06-.35-.106z"/></svg>